<svg xmlns="http://www.w3.org/2000/svg" width="1404" height="1088" viewBox="0 0 1404 1088" font-family="'Noto Sans','Open Sans','Helvetica Neue',Arial,sans-serif">
<rect x="0" y="0" width="1404" height="1088" fill="#f2f2f2"/>
<defs><marker id="axis" markerWidth="14" markerHeight="14" refX="9" refY="5" orient="auto"><path d="M0,0 L10,5 L0,10 z" fill="#1a1a1a"/></marker><marker id="move" markerWidth="12" markerHeight="12" refX="8" refY="4.5" orient="auto"><path d="M0,0 L9,4.5 L0,9 z" fill="#1a1a1a"/></marker></defs>
<rect x="120" y="28" width="814" height="910" fill="#d1f09f"/>
<rect x="120" y="28" width="276.8" height="910" fill="#fff8aa" stroke="#1a1a1a" stroke-width="2" stroke-dasharray="9 7"/>
<rect x="657.2" y="28" width="276.8" height="591.5" fill="#90baf9" stroke="#1a1a1a" stroke-width="2" stroke-dasharray="9 7"/>
<text x="258.4" y="76" text-anchor="middle" font-size="34" fill="#1a1a1a">Generic</text>
<g fill="none" stroke="#232f3d" stroke-width="2.2"><circle cx="258.38" cy="120" r="15.0"/><ellipse cx="258.38" cy="120" rx="6.8" ry="15.0"/><line x1="243.38" y1="120" x2="273.38" y2="120"/><line x1="245.6" y1="112.5" x2="271.1" y2="112.5"/><line x1="245.6" y1="127.5" x2="271.1" y2="127.5"/></g>
<text x="527.0" y="76" text-anchor="middle" font-size="34" fill="#1a1a1a">Supporting</text>
<g fill="none" stroke="#232f3d" stroke-width="2.4" stroke-linecap="round"><circle cx="524.0" cy="117.0" r="10.5"/><line x1="531.4" y1="124.3" x2="542.0" y2="135.0"/></g>
<text x="795.6" y="76" text-anchor="middle" font-size="34" fill="#1a1a1a">Core</text>
<g fill="none" stroke="#232f3d" stroke-width="2.2" stroke-linecap="round" stroke-linejoin="round"><circle cx="795.62" cy="113.2" r="4.8"/><path d="M 785.1 135.0 q 10.5 -12.0 21.0 0"/><polyline points="799.4,120.8 803.9,125.2 811.4,114.8"/></g>
<line x1="120" y1="938" x2="964" y2="938" stroke="#1a1a1a" stroke-width="3" marker-end="url(#axis)"/>
<line x1="120" y1="938" x2="120" y2="16" stroke="#1a1a1a" stroke-width="3" marker-end="url(#axis)"/>
<text x="120" y="976" text-anchor="middle" font-size="24" fill="#1a1a1a">Low</text>
<text x="934" y="976" text-anchor="middle" font-size="24" fill="#1a1a1a">High</text>
<text x="90" y="938" text-anchor="middle" font-size="24" fill="#1a1a1a">Low</text>
<text x="90" y="34" text-anchor="middle" font-size="24" fill="#1a1a1a">High</text>
<text x="527.0" y="1030" text-anchor="middle" font-size="30" font-weight="700" fill="#1a1a1a">Business differentiation</text>
<text x="48" y="483.0" text-anchor="middle" font-size="30" font-weight="700" fill="#1a1a1a" transform="rotate(-90 48 483.0)">Model complexity</text>
<line x1="548.4" y1="350.3" x2="719.6" y2="307.8" stroke="#1a1a1a" stroke-width="2" marker-end="url(#move)"/>
<line x1="536.4" y1="533.4" x2="675.7" y2="427.2" stroke="#1a1a1a" stroke-width="2" marker-end="url(#move)"/>
<line x1="506.7" y1="602.1" x2="639.4" y2="548.1" stroke="#1a1a1a" stroke-width="2" marker-end="url(#move)"/>
<line x1="668.0" y1="449.6" x2="587.3" y2="460.9" stroke="#1a1a1a" stroke-width="2" marker-end="url(#move)"/>
<line x1="676.9" y1="617.0" x2="521.2" y2="665.7" stroke="#1a1a1a" stroke-width="2" marker-end="url(#move)"/>
<line x1="337.0" y1="633.5" x2="475.1" y2="606.6" stroke="#1a1a1a" stroke-width="2" marker-end="url(#move)"/>
<circle cx="527.0" cy="355.6" r="22" fill="#b0b0b0" stroke="#1a1a1a" stroke-width="3" stroke-dasharray="6 5"/>
<circle cx="518.9" cy="546.7" r="22" fill="#b0b0b0" stroke="#1a1a1a" stroke-width="3" stroke-dasharray="6 5"/>
<circle cx="486.3" cy="610.4" r="22" fill="#b0b0b0" stroke="#1a1a1a" stroke-width="3" stroke-dasharray="6 5"/>
<circle cx="689.8" cy="446.6" r="22" fill="#b0b0b0" stroke="#1a1a1a" stroke-width="3" stroke-dasharray="6 5"/>
<circle cx="697.9" cy="610.4" r="22" fill="#b0b0b0" stroke="#1a1a1a" stroke-width="3" stroke-dasharray="6 5"/>
<circle cx="315.4" cy="637.7" r="22" fill="#b0b0b0" stroke="#1a1a1a" stroke-width="3" stroke-dasharray="6 5"/>
<circle cx="763.1" cy="419.3" r="22" fill="none" stroke="#1a1a1a" stroke-width="4"/>
<circle cx="820.0" cy="237.3" r="22" fill="none" stroke="#1a1a1a" stroke-width="4"/>
<circle cx="722.4" cy="537.6" r="22" fill="none" stroke="#1a1a1a" stroke-width="4"/>
<circle cx="746.8" cy="301.0" r="22" fill="none" stroke="#1a1a1a" stroke-width="4"/>
<circle cx="697.9" cy="410.2" r="22" fill="none" stroke="#1a1a1a" stroke-width="4"/>
<circle cx="665.4" cy="537.6" r="22" fill="none" stroke="#1a1a1a" stroke-width="4"/>
<circle cx="559.6" cy="464.8" r="22" fill="none" stroke="#1a1a1a" stroke-width="4"/>
<circle cx="494.4" cy="674.1" r="22" fill="none" stroke="#1a1a1a" stroke-width="4"/>
<circle cx="502.6" cy="601.3" r="22" fill="none" stroke="#1a1a1a" stroke-width="4"/>
<circle cx="527.0" cy="737.8" r="22" fill="none" stroke="#1a1a1a" stroke-width="4"/>
<circle cx="250.2" cy="655.9" r="22" fill="none" stroke="#1a1a1a" stroke-width="4"/>
<circle cx="234.0" cy="555.8" r="22" fill="none" stroke="#1a1a1a" stroke-width="4"/>
<circle cx="299.1" cy="774.2" r="22" fill="none" stroke="#1a1a1a" stroke-width="4"/>
<circle cx="225.8" cy="856.1" r="22" fill="none" stroke="#1a1a1a" stroke-width="4"/>
<circle cx="323.5" cy="865.2" r="22" fill="none" stroke="#1a1a1a" stroke-width="4"/>
<text x="795.1" y="427.7" font-size="24" fill="#1a1a1a">Meal chooser</text>
<text x="852.0" y="245.7" font-size="24" fill="#1a1a1a">AI proposals</text>
<text x="754.4" y="546.0" font-size="24" fill="#1a1a1a">Content</text>
<text x="714.8" y="309.4" text-anchor="end" font-size="24" fill="#1a1a1a">Grandparent AI</text>
<text x="697.9" y="376.2" text-anchor="middle" font-size="24" fill="#1a1a1a">Planner</text>
<text x="665.4" y="503.6" text-anchor="middle" font-size="24" fill="#1a1a1a">Chef partners</text>
<text x="527.6" y="473.2" text-anchor="end" font-size="24" fill="#1a1a1a">Nutrition</text>
<text x="494.4" y="724.1" text-anchor="middle" font-size="24" fill="#1a1a1a">Rating</text>
<text x="470.6" y="609.7" text-anchor="end" font-size="24" fill="#1a1a1a">Direct order</text>
<text x="559.0" y="746.2" font-size="24" fill="#1a1a1a">Cookbook pub.</text>
<text x="282.2" y="664.3" font-size="24" fill="#1a1a1a">Member mgmt</text>
<text x="234.0" y="521.8" text-anchor="middle" font-size="24" fill="#1a1a1a">Ads mgmt</text>
<text x="299.1" y="824.2" text-anchor="middle" font-size="24" fill="#1a1a1a">Kitchen tools</text>
<text x="225.8" y="906.1" text-anchor="middle" font-size="24" fill="#1a1a1a">Timer</text>
<text x="323.5" y="915.2" text-anchor="middle" font-size="24" fill="#1a1a1a">Paywall</text>
<circle cx="1004.0" cy="118.0" r="22" fill="#b0b0b0" stroke="#1a1a1a" stroke-width="3" stroke-dasharray="6 5"/>
<text x="1044" y="114" font-size="23" fill="#1a1a1a">Capability Map</text><text x="1044" y="142" font-size="23" fill="#1a1a1a">position</text>
<circle cx="1004.0" cy="218.0" r="22" fill="none" stroke="#1a1a1a" stroke-width="4"/>
<text x="1044" y="214" font-size="23" fill="#1a1a1a">New position</text><text x="1044" y="242" font-size="23" fill="#1a1a1a">based on critic</text>
</svg>